<?xml version="1.0" encoding="utf-8"?>
<!-- Generator: Adobe Illustrator 26.0.1, SVG Export Plug-In . SVG Version: 6.00 Build 0)  -->
<svg version="1.1" id="katman_1" xmlns="http://www.w3.org/2000/svg" xmlns:xlink="http://www.w3.org/1999/xlink" x="0px" y="0px"
	 viewBox="0 0 183.3 140.2" style="enable-background:new 0 0 183.3 140.2;" xml:space="preserve">
<style type="text/css">
	.st0{fill-rule:evenodd;clip-rule:evenodd;}
	.st1{filter:url(#Adobe_OpacityMaskFilter);}
	.st2{opacity:0.39;mask:url(#SVGID_1_);}
	.st3{fill-rule:evenodd;clip-rule:evenodd;fill:#9B8800;}
</style>
<g id="svgg_00000127033926357374582230000001783311746037714053_">
	<g>
		<g>
			<path id="path0_00000007430461868259932700000004363280388880102054_" class="st0" d="M72,38.6c-4.3,1.1-6.6,4.5-6.6,9.6
				c0,4.3,1.5,7.2,4.5,8.8l0.9,0.5v15.2c0,14.8,0,15.3,0.2,16c1.8,5.7,10.1,5.7,11.8,0c0.2-0.8,0.2-1.2,0.2-16V57.4l0.9-0.5
				c1.3-0.7,2.8-2.2,3.5-3.6c1.4-2.8,1.4-7.6,0-10.4c-1.6-3.2-6.5-5.7-8-4.2l-0.4,0.4v4.3v4.3H77h-2.2v-4.2c0-4.6,0-4.6-0.7-5
				C73.6,38.3,73.1,38.3,72,38.6 M72.9,44.7v4.1l0.4,0.4l0.4,0.4H77h3.3l0.4-0.4l0.4-0.4v-4.1v-4.1l0.3,0.1c2.6,0.6,4.6,3.1,5,6.1
				c0.5,4.3-0.9,7.3-4.2,8.8c-1.2,0.6-1.1-1-1.1,16c0,8.2-0.1,15.3-0.1,15.7c-0.7,4.8-7.4,4.8-8.1,0c-0.1-0.4-0.1-7.4-0.1-15.8
				c0-17,0.1-15.5-1.1-16c-3-1.4-4.3-3.6-4.3-7.3c0-2.5,0.4-3.9,1.6-5.3c0.8-1,2.8-2.3,3.7-2.3C72.8,40.5,72.9,42.4,72.9,44.7
				 M88.6,51.9c-0.2,0.2-0.2,0.4-0.2,0.7c0,1-0.3,1,6.5,1l6,0l0.7,0.6c1.3,1,2.4,2.8,2.7,4.5c0.1,0.5,0.3,1.1,0.4,1.3
				c0.2,0.6,0,0.9-1,1.5c-1.3,0.8-1.2,0.8-10.5,0.8c-9.6,0-9-0.1-9,1c0,1.1-0.7,1,9.6,1l9.1,0l1.2-0.6c1.5-0.7,2.8-2,3.5-3.3
				l0.4-0.8l2.4,0c2.9,0,3.4,0.3,3.4,1.5c0,1.1-0.5,1.3-3,1.7c-3.4,0.5-3.8,1.2-2.2,3.5c1.3,1.8,1.2,1.5,1.2,5.5
				c0,3.8,0,4.1-0.8,4.9c-1,1.1,0,1-13.1,1.1c-13,0.1-11.9,0-11.9,1c0,1-1,1,12.2,1c6.8,0,11.8,0,12.1-0.1l0.4-0.1v1.1
				c0,2.3,0,2.3-4.2,2.3c-3.9,0-4.2-0.1-4.2-1.4c0-0.5-0.4-0.8-1-0.8c-1.7,0-1.2,3.1,0.7,4c0.7,0.3,8.2,0.3,9,0
				c1.4-0.6,1.7-1.4,1.7-4.2v-2.2l0.4-0.7c0.8-1.1,0.8-1.4,0.8-5.8c0-4.5,0-4.5-1-6c-0.3-0.5-0.5-0.9-0.5-0.9c0.4,0,2.8-0.4,3.2-0.6
				c2.8-1,3-5.2,0.3-6.5c-1.2-0.6-7.6-0.4-7.6,0.2c0,0.1-0.1-0.2-0.3-0.7c-0.7-2.2-2.6-4.7-4.1-5.5C101.3,51.5,89,51.5,88.6,51.9
				 M106.3,67.2c-0.3,0.3-0.8,0.8-1.1,1.2l-0.6,0.7h-2.7c-3.1,0-3.2,0-3.2,1c0,1,0.1,1,3.6,1c3.6,0,3.3,0.1,4.9-1.7
				c1-1.2,1.1-1.3,1.1-1.8C108.3,66.5,107.2,66.2,106.3,67.2 M84.4,73.8c-0.2,0.2-0.2,0.4-0.2,0.7c0,1-0.5,1,8,1c8.5,0,8,0.1,8-1
				c0-1,0.5-1-8-1C84.8,73.5,84.7,73.5,84.4,73.8 M76.3,85.6c-0.2,0.2-0.2,0.4-0.2,1.4c0,1.3,0.2,1.6,1,1.6c0.8,0,1-0.3,1-1.6
				c0-1.3-0.2-1.6-1-1.6C76.7,85.4,76.5,85.4,76.3,85.6"/>
		</g>
	</g>
	<defs>
		<filter id="Adobe_OpacityMaskFilter" filterUnits="userSpaceOnUse" x="65.5" y="38.3" width="50.5" height="54.6">
			<feFlood  style="flood-color:white;flood-opacity:1" result="back"/>
			<feBlend  in="SourceGraphic" in2="back" mode="normal"/>
		</filter>
	</defs>
	<mask maskUnits="userSpaceOnUse" x="65.5" y="38.3" width="50.5" height="54.6" id="SVGID_1_">
		<g class="st1">
			
				<image style="overflow:visible;" width="228" height="246" xlink:href="A3F58F53.jpg"  transform="matrix(0.24 0 0 0.24 63.322 36.1698)">
			</image>
		</g>
	</mask>
	<g class="st2">
		<g>
			<path id="path0_00000023966649620817608360000009552440515829852045_" class="st3" d="M72,38.6c-4.3,1.1-6.6,4.5-6.6,9.6
				c0,4.3,1.5,7.2,4.5,8.8l0.9,0.5v15.2c0,14.8,0,15.3,0.2,16c1.8,5.7,10.1,5.7,11.8,0c0.2-0.8,0.2-1.2,0.2-16V57.4l0.9-0.5
				c1.3-0.7,2.8-2.2,3.5-3.6c1.4-2.8,1.4-7.6,0-10.4c-1.6-3.2-6.5-5.7-8-4.2l-0.4,0.4v4.3v4.3H77h-2.2v-4.2c0-4.6,0-4.6-0.7-5
				C73.6,38.3,73.1,38.3,72,38.6 M72.9,44.7v4.1l0.4,0.4l0.4,0.4H77h3.3l0.4-0.4l0.4-0.4v-4.1v-4.1l0.3,0.1c2.6,0.6,4.6,3.1,5,6.1
				c0.5,4.3-0.9,7.3-4.2,8.8c-1.2,0.6-1.1-1-1.1,16c0,8.2-0.1,15.3-0.1,15.7c-0.7,4.8-7.4,4.8-8.1,0c-0.1-0.4-0.1-7.4-0.1-15.8
				c0-17,0.1-15.5-1.1-16c-3-1.4-4.3-3.6-4.3-7.3c0-2.5,0.4-3.9,1.6-5.3c0.8-1,2.8-2.3,3.7-2.3C72.8,40.5,72.9,42.4,72.9,44.7
				 M88.6,51.9c-0.2,0.2-0.2,0.4-0.2,0.7c0,1-0.3,1,6.5,1l6,0l0.7,0.6c1.3,1,2.4,2.8,2.7,4.5c0.1,0.5,0.3,1.1,0.4,1.3
				c0.2,0.6,0,0.9-1,1.5c-1.3,0.8-1.2,0.8-10.5,0.8c-9.6,0-9-0.1-9,1c0,1.1-0.7,1,9.6,1l9.1,0l1.2-0.6c1.5-0.7,2.8-2,3.5-3.3
				l0.4-0.8l2.4,0c2.9,0,3.4,0.3,3.4,1.5c0,1.1-0.5,1.3-3,1.7c-3.4,0.5-3.8,1.2-2.2,3.5c1.3,1.8,1.2,1.5,1.2,5.5
				c0,3.8,0,4.1-0.8,4.9c-1,1.1,0,1-13.1,1.1c-13,0.1-11.9,0-11.9,1c0,1-1,1,12.2,1c6.8,0,11.8,0,12.1-0.1l0.4-0.1v1.1
				c0,2.3,0,2.3-4.2,2.3c-3.9,0-4.2-0.1-4.2-1.4c0-0.5-0.4-0.8-1-0.8c-1.7,0-1.2,3.1,0.7,4c0.7,0.3,8.2,0.3,9,0
				c1.4-0.6,1.7-1.4,1.7-4.2v-2.2l0.4-0.7c0.8-1.1,0.8-1.4,0.8-5.8c0-4.5,0-4.5-1-6c-0.3-0.5-0.5-0.9-0.5-0.9c0.4,0,2.8-0.4,3.2-0.6
				c2.8-1,3-5.2,0.3-6.5c-1.2-0.6-7.6-0.4-7.6,0.2c0,0.1-0.1-0.2-0.3-0.7c-0.7-2.2-2.6-4.7-4.1-5.5C101.3,51.5,89,51.5,88.6,51.9
				 M106.3,67.2c-0.3,0.3-0.8,0.8-1.1,1.2l-0.6,0.7h-2.7c-3.1,0-3.2,0-3.2,1c0,1,0.1,1,3.6,1c3.6,0,3.3,0.1,4.9-1.7
				c1-1.2,1.1-1.3,1.1-1.8C108.3,66.5,107.2,66.2,106.3,67.2 M84.4,73.8c-0.2,0.2-0.2,0.4-0.2,0.7c0,1-0.5,1,8,1c8.5,0,8,0.1,8-1
				c0-1,0.5-1-8-1C84.8,73.5,84.7,73.5,84.4,73.8 M76.3,85.6c-0.2,0.2-0.2,0.4-0.2,1.4c0,1.3,0.2,1.6,1,1.6c0.8,0,1-0.3,1-1.6
				c0-1.3-0.2-1.6-1-1.6C76.7,85.4,76.5,85.4,76.3,85.6"/>
		</g>
	</g>
</g>
<g>
</g>
<g>
</g>
<g>
</g>
<g>
</g>
<g>
</g>
<g>
</g>
</svg>
